<svg xmlns="http://www.w3.org/2000/svg" xmlns:xlink="http://www.w3.org/1999/xlink" version="1.1" x="0px" y="0px" viewBox="0 0 32 40" style="enable-background:new 0 0 32 32;" xml:space="preserve"><g><g><path d="M29.929,22.878l-4.828-12.07c-0.206-0.512-0.785-0.759-1.3-0.557L9.873,15.822c-0.246,0.099-0.443,0.291-0.547,0.535    c-0.104,0.244-0.108,0.519-0.01,0.766l4.828,12.07c0.157,0.391,0.532,0.629,0.929,0.629c0.124,0,0.249-0.023,0.371-0.072    l13.927-5.571c0.246-0.099,0.443-0.291,0.547-0.535C30.023,23.399,30.027,23.125,29.929,22.878z M21.354,22.917    c-0.19,0.257-0.49,0.405-0.804,0.405c-0.057,0-0.114-0.005-0.171-0.015c-0.84-0.146-5.039-1.008-5.192-3.617    c-0.057-0.962,0.365-1.536,0.729-1.847c0.76-0.651,1.88-0.678,2.599-0.611c0.476-0.545,1.305-1.297,2.305-1.35    c0.483-0.03,1.179,0.099,1.801,0.834C24.309,18.711,21.862,22.231,21.354,22.917z"/></g><g><path d="M8.5,2.18c-1.65,0-3,1.35-3,3h6C11.5,3.53,10.15,2.18,8.5,2.18z"/></g><g><path d="M17.5,2.18c-1.65,0-3,1.35-3,3h6C20.5,3.53,19.15,2.18,17.5,2.18z"/></g><g><path d="M23.43,9.32C23.61,9.25,23.81,9.21,24,9.2V7.18c0-0.55-0.45-1-1-1H3c-0.55,0-1,0.45-1,1v4h16.779L23.43,9.32z"/></g><g><path d="M8.41,15.96c0.21-0.49,0.6-0.87,1.09-1.07l4.277-1.71H2v12c0,0.55,0.45,1,1,1h8.87l-3.48-8.69    C8.19,17,8.2,16.45,8.41,15.96z"/></g></g><text x="0" y="47" fill="#000000" font-size="5px" font-weight="bold" font-family="'Helvetica Neue', Helvetica, Arial-Unicode, Arial, Sans-serif">Created by anggun</text><text x="0" y="52" fill="#000000" font-size="5px" font-weight="bold" font-family="'Helvetica Neue', Helvetica, Arial-Unicode, Arial, Sans-serif">from the Noun Project</text></svg>